<svg width="123" height="254" viewBox="0 0 123 254" fill="none" xmlns="http://www.w3.org/2000/svg">
    <path
        d="M1.33832 10.7947C1.33832 5.61675 5.5359 1.41916 10.7139 1.41916H112.286C117.464 1.41916 121.662 5.61675 121.662 10.7947V243.801C121.662 248.979 117.464 253.177 112.286 253.177H10.7139C5.53591 253.177 1.33832 248.979 1.33832 243.801V10.7947ZM13.115 5.01471C8.59671 5.01471 4.93395 8.67747 4.93395 13.1957V241.4C4.93395 245.918 8.59672 249.581 13.115 249.581H109.885C114.404 249.581 118.066 245.918 118.066 241.4V13.1957C118.066 8.67747 114.404 5.01471 109.885 5.01471H92.8311C92.0027 5.01471 91.3311 5.68629 91.3311 6.51471V10.8654C91.3311 12.7103 89.8355 14.2059 87.9906 14.2059H35.0098C33.1649 14.2059 31.6693 12.7103 31.6693 10.8654V6.51471C31.6693 5.68629 30.9977 5.01471 30.1693 5.01471H13.115Z"
        fill="#ECEDEF" stroke="#7C7C7C" />
    <path d="M52.8084 8.27236C52.8084 8.04088 52.9961 7.85324 53.2275 7.85324H69.7717C70.0031 7.85324 70.1908 8.04089 70.1908 8.27236C70.1908 8.50383 70.0031 8.69148 69.7717 8.69148H53.2275C52.9961 8.69148 52.8084 8.50383 52.8084 8.27236Z" fill="#BEBFC3"
        stroke="black" />
    <path d="M78.4631 8.27206C78.4631 9.01115 77.8639 9.6103 77.1249 9.6103C76.3858 9.6103 75.7866 9.01115 75.7866 8.27206C75.7866 7.53297 76.3858 6.93382 77.1249 6.93382C77.8639 6.93382 78.4631 7.53297 78.4631 8.27206Z" fill="#BCBDBF" stroke="black" />
</svg>